<svg xmlns="http://www.w3.org/2000/svg"
     width="16" height="16"
     viewBox="0 0 16 16"
     fill="currentColor">

  <g transform="translate(8 8) rotate(-45) scale(1.05) translate(-8 -8)">
    <path fill-rule="evenodd"
          d="M8 3a5 5 0 1 1-4.546 2.914.5.5 0 0 0-.908-.417A6 6 0 1 0 8 2z"/>
    <path d="M8 4.466V.534a.25.25 0 0 0-.41-.192L5.23 2.308a.25.25 0 0 0 0 .384l2.36 1.966A.25.25 0 0 0 8 4.466"/>
  </g>

  <line x1="8.2" y1="8.2" x2="8.2" y2="5.2"
        stroke="currentColor" stroke-width="1" stroke-linecap="round"/>

  <line x1="8.2" y1="8.2" x2="10.6" y2="9.6"
        stroke="currentColor" stroke-width="1" stroke-linecap="round"/>
</svg>
